<svg xmlns="http://www.w3.org/2000/svg" viewBox="0 0 256 256" fill="none">
  <rect width="256" height="256" rx="40" fill="#090B16"/>
  <defs>
    <linearGradient id="injective-left" x1="56" y1="54" x2="138" y2="196" gradientUnits="userSpaceOnUse">
      <stop stop-color="#2B7BFF"/>
      <stop offset="1" stop-color="#17D4FF"/>
    </linearGradient>
    <linearGradient id="injective-right" x1="197" y1="49" x2="121" y2="204" gradientUnits="userSpaceOnUse">
      <stop stop-color="#19E0FF"/>
      <stop offset="1" stop-color="#28B9FF"/>
    </linearGradient>
  </defs>
  <path
    d="M92.23 42.5c-22.75 8.61-39.74 29.38-47.59 53.73-9.73 30.17-4.05 65.8 18.87 89.17 13.35 13.62 32.04 23.8 51.51 27.23-11.22-5.31-22.51-14.41-28.61-24.38-15.61-25.52-10.24-53.61 9.82-74.77 8.2-8.65 17.65-16.08 26.26-24.3 8.94-8.54 15.69-18.2 18.53-30.41-10.16-13.15-31.63-22.26-48.79-16.27Z"
    fill="url(#injective-left)"
  />
  <path
    d="M166.93 42.35c11.63 5.05 21.47 13.26 28.39 23.78 14.26 21.66 16.43 48.12 8.98 72.62-9.34 30.73-35.49 57.97-67.99 74.75 13.75 1.77 30.64-1.56 42.74-7.63 34.34-17.24 50.84-51.87 43.03-86.38-3.13-13.83-9.78-26.76-14.2-40.18-3.85-11.7-5.53-23.67-2.14-35.66-8.4-0.94-24.98-3.08-38.81-1.3Z"
    fill="url(#injective-right)"
  />
</svg>
